<?xml version="1.0" encoding="utf-8"?>
<!-- Generator: Adobe Illustrator 24.1.2, SVG Export Plug-In . SVG Version: 6.00 Build 0)  -->
<svg version="1.1" xmlns="http://www.w3.org/2000/svg" xmlns:xlink="http://www.w3.org/1999/xlink" x="0px" y="0px"
	 viewBox="0 0 841.89 595.28" style="enable-background:new 0 0 841.89 595.28;" xml:space="preserve">
<style type="text/css">
	.st0{opacity:0.7;fill:#B4CC4C;}
	.st1{opacity:0.7;fill:#64C1AF;}
	.st2{opacity:0.7;fill:#ED5E29;}
	.st3{opacity:0.7;fill:#27A7DF;}
	.st4{fill:#FFFFFF;}
</style>
<g id="abajo">
	<path class="st0" d="M613.51,304.82c-2.3-27.18-19.45-52.11-46.39-62.38c-2.52-0.96-5.13-1.8-7.82-2.49
		c-51.69-13.33-100.93-17.38-157.61-17.4c-46.51,0.02-88.01,2.76-129.97,11.11c-9.17,1.82-18.37,3.91-27.64,6.3
		c-6.58,1.7-12.67,4.23-18.22,7.44c-29.7,17.2-43.61,53.95-32.41,87.3c4.11,12.23,11.09,22.45,20.01,30.45
		c19.94,17.88,49.6,24.69,78.75,18.12c42.02-9.48,74.55-10.06,109.47-10.12h-0.03h0.05h-0.03c34.92,0.05,67.46,0.64,109.48,10.12
		c35.13,7.93,71-3.6,89.7-30.52c3.75-5.41,6.83-11.42,9.06-18.04C613.23,324.83,614.35,314.68,613.51,304.82z"/>
</g>
<g id="arriba">
	<path class="st1" d="M275.79,310.57c1.23,0.39,2.47,0.74,3.73,1.07c51.69,13.33,100.93,17.38,157.61,17.4
		c47.34-0.02,89.49-2.87,132.21-11.57c8.43-1.72,16.88-3.64,25.4-5.84c6.58-1.7,12.67-4.23,18.22-7.44
		c29.7-17.2,43.61-53.95,32.41-87.3c-3.68-10.96-9.67-20.29-17.29-27.87c-19.9-19.79-50.97-27.57-81.47-20.69
		c-42.02,9.48-74.55,10.07-109.47,10.12h0.03h-0.05h0.03c-34.92-0.05-67.46-0.64-109.48-10.12c-35.13-7.93-71.01,3.6-89.71,30.53
		c-3.75,5.41-6.83,11.42-9.05,18.04c-3.31,9.86-4.43,20.01-3.59,29.86c0.98,11.59,4.66,22.77,10.65,32.58
		c2.05,3.35,4.02,7.23,7.29,10.42c5.82,5.67,5.82,5.67,9.39,8.51C259.33,303.62,267.1,307.83,275.79,310.57z"/>
</g>
<g id="izquierda">
	<circle class="st2" cx="191.33" cy="276.94" r="90.33"/>
</g>
<g id="derecha">
	<circle class="st3" cx="650.33" cy="276.94" r="90.33"/>
</g>
<g id="Capa_6">
	<path id="texto_1_" class="st4" d="M723.9,306.94c12.45,0,21.25-6.55,21.25-16.38c0-8.42-4.3-11.98-11.51-14.13l-5.33-1.59
		c-3.18-0.94-4.87-1.78-4.87-4.49c0-2.9,2.53-4.12,6.74-4.12c4.02,0,7.67,1.12,10.67,2.34c1.4-2.62,2.43-6.36,2.71-9.64
		c-4.87-1.78-9.55-2.62-14.41-2.62c-11.7,0-19,5.71-19,15.16c0,7.86,4.12,11.23,11.14,13.29l5.8,1.68c3.28,0.94,5.15,1.97,5.15,4.96
		c0,4.02-5.05,5.24-8.8,5.24c-4.02,0-7.49-0.84-11.61-2.43c-1.5,3.28-2.43,6.74-2.71,10.11C713.79,306.1,718.47,306.94,723.9,306.94
		 M673.73,276.43c0.66-6.36,3.84-10.01,10.01-10.01c5.52,0,8.7,4.03,8.89,10.01H673.73z M685.9,306.94c6.18,0,11.6-0.94,16.47-2.81
		c-0.09-4.02-1.22-7.58-2.62-10.11c-3.93,1.5-8.52,2.34-12.82,2.34c-7.67,0-12.73-3.18-13.29-10.67h31.07
		c0.28-1.4,0.47-3.93,0.47-6.27c0-13.1-7.77-23.12-21.24-23.12c-15.07,0-23.4,11.14-23.4,25.64c0,7.21,1.97,13.48,5.99,17.88
		C670.55,304.32,676.91,306.94,685.9,306.94 M618.98,306.38c2.15,0,4.4-0.19,6.65-0.56v-25.36c0-9.17,3.84-12.45,9.36-12.45
		c5.15,0,6.92,3.74,6.92,10.48v27.33c2.25,0.38,4.49,0.56,6.65,0.56c2.15,0,4.4-0.19,6.65-0.56v-30.88
		c0-12.82-5.61-18.62-16.57-18.62c-6.55,0-11.23,3.74-13.94,7.86c-0.19-1.5-0.75-5.52-1.5-6.74l-0.66-0.09
		c-1.97-0.09-4.3-0.19-7.02-0.19c-2.9,0-6.18,0.09-9.64,0.28c-0.37,1.59-0.56,3.27-0.56,4.96c0,1.59,0.19,3.56,0.56,5.15h6.46v38.28
		C614.58,306.19,616.83,306.38,618.98,306.38 M542.42,249.66c2.15,0,4.68-0.09,6.83-0.47c0.38-2.15,0.47-4.31,0.47-6.27
		c0-2.15-0.09-4.12-0.47-6.27c-2.15-0.38-4.77-0.56-6.93-0.56c-1.97,0-4.59,0.19-6.74,0.56c-0.38,2.15-0.56,4.3-0.56,6.27
		c0,2.06,0.19,4.12,0.56,6.27C537.74,249.57,540.46,249.66,542.42,249.66 M580.24,296.83c-6.83,0-9.73-5.33-9.73-15.07
		c0-9.73,2.9-15.07,9.73-15.07c7.02,0,9.83,5.34,9.83,15.07C590.06,291.5,587.25,296.83,580.24,296.83 M580.24,306.94
		c15.44,0,23.3-10.48,23.3-25.18c0-14.69-7.77-25.46-23.3-25.46c-15.26,0-23.21,10.76-23.21,25.46
		C557.02,296.36,564.98,306.94,580.24,306.94 M544.02,306.28c2.15,0,4.3-0.19,6.55-0.56v-48.39h-19.28
		c-0.38,1.59-0.56,3.28-0.56,4.96c0,1.59,0.19,3.56,0.56,5.15h6.27v38.28C539.8,306.1,541.96,306.28,544.02,306.28 M477.1,249.76
		c2.15,0,4.68-0.09,6.83-0.47c0.37-2.15,0.47-4.3,0.47-6.27c0-2.15-0.09-4.12-0.47-6.27c-2.15-0.37-4.77-0.56-6.92-0.56
		c-1.97,0-4.59,0.19-6.74,0.56c-0.37,2.15-0.56,4.3-0.56,6.27c0,2.06,0.19,4.12,0.56,6.27C472.42,249.66,475.13,249.76,477.1,249.76
		 M506.58,306.94c12.54,0,21.25-6.55,21.25-16.38c0-8.42-4.31-11.98-11.51-14.13l-5.33-1.59c-3.18-0.94-4.87-1.78-4.87-4.49
		c0-2.9,2.53-4.12,6.74-4.12c1.31,0,2.53,0.09,3.65,0.38v5.15c1.31,0.37,3.18,0.47,4.49,0.47c1.4,0,2.99-0.09,4.3-0.47
		c0.09-1.87,0.19-4.02,0.19-6.18c0-2.25-0.09-4.49-0.19-6.55v-0.09c-4.87-1.78-8.61-2.62-13.48-2.62c-11.7,0-19,5.71-19,15.16
		c0,7.86,4.12,11.23,11.14,13.29l5.8,1.68c3.28,0.94,5.15,1.97,5.15,4.96c0,4.02-5.05,5.24-8.8,5.24c-4.02,0-7.49-0.84-11.6-2.43
		c-1.5,3.28-2.43,6.74-2.71,10.11C496.47,306.1,501.15,306.94,506.58,306.94 M478.69,306.38c2.15,0,4.31-0.19,6.55-0.56v-48.38
		h-19.28c-0.37,1.59-0.56,3.27-0.56,4.96c0,1.59,0.19,3.56,0.56,5.15h6.27v38.28C474.48,306.19,476.63,306.38,478.69,306.38
		 M327.07,306.38c2.15,0,4.4-0.19,6.65-0.56v-25.36c0-9.17,3.84-12.45,9.36-12.45c5.15,0,6.93,3.74,6.93,10.48v27.33
		c2.25,0.38,4.49,0.56,6.65,0.56c2.15,0,4.4-0.19,6.64-0.56v-30.88c0-12.82-5.62-18.62-16.57-18.62c-6.55,0-11.23,3.74-13.94,7.86
		c-0.19-1.5-0.75-5.52-1.5-6.74l-0.65-0.09c-1.97-0.09-4.31-0.19-7.02-0.19c-2.9,0-6.18,0.09-9.64,0.28
		c-0.38,1.59-0.56,3.27-0.56,4.96c0,1.59,0.19,3.56,0.56,5.15h6.46v38.28C322.68,306.19,324.92,306.38,327.07,306.38 M288.14,296.83
		c-6.83,0-9.73-5.33-9.73-15.07c0-9.73,2.9-15.07,9.73-15.07c7.02,0,9.83,5.34,9.83,15.07C297.97,291.5,295.16,296.83,288.14,296.83
		 M288.14,306.94c15.44,0,23.3-10.48,23.3-25.18c0-14.69-7.77-25.46-23.3-25.46c-15.26,0-23.21,10.76-23.21,25.46
		C264.93,296.36,272.88,306.94,288.14,306.94 M208.78,249.76c2.15,0,4.68-0.09,6.83-0.47c0.37-2.15,0.47-4.3,0.47-6.27
		c0-2.15-0.09-4.12-0.47-6.27c-2.15-0.37-4.77-0.56-6.93-0.56c-1.97,0-4.59,0.19-6.74,0.56c-0.38,2.15-0.56,4.3-0.56,6.27
		c0,2.06,0.19,4.12,0.56,6.27C204.1,249.66,206.81,249.76,208.78,249.76 M248.36,307.03c4.77,0,8.89-0.37,13.85-2.34
		c0-4.49-1.12-7.67-2.62-10.2c-4.12,1.5-5.8,1.78-9.92,1.78c-7.21,0-11.79-4.4-11.79-14.51c0-9.36,3.93-14.6,11.7-14.6h1.96v6.27
		c1.59,0.37,3.56,0.56,5.15,0.56c1.68,0,3.37-0.19,4.96-0.56c0.09-2.15,0.19-4.59,0.19-7.11s-0.09-5.05-0.19-7.49
		c-4.96-1.87-8.42-2.43-13.85-2.43c-15.25,0-23.4,10.86-23.4,25.36C224.41,296.65,232.64,307.03,248.36,307.03 M210.37,306.38
		c2.15,0,4.31-0.19,6.55-0.56v-48.38h-19.28c-0.37,1.59-0.56,3.27-0.56,4.96c0,1.59,0.19,3.56,0.56,5.15h6.27v38.28
		C206.16,306.19,208.31,306.38,210.37,306.38 M190.43,306.38c2.34,0,5.52-0.19,7.49-0.84c0.09-0.47,0.19-0.94,0.19-1.4v-1.31
		c0-2.43-0.37-4.96-1.03-7.49c-1.12,0.28-2.34,0.37-3.37,0.37c-4.87,0-5.99-2.34-5.99-9.17V237.4c-2.25-0.37-4.4-0.56-6.55-0.56
		c-2.15,0-4.4,0.19-6.64,0.56v52.04C174.52,301.42,180.79,306.38,190.43,306.38 M156.65,249.76c2.15,0,4.68-0.09,6.83-0.47
		c0.37-2.15,0.47-4.3,0.47-6.27c0-2.15-0.09-4.12-0.47-6.27c-2.15-0.37-4.77-0.56-6.93-0.56c-1.96,0-4.59,0.19-6.74,0.56
		c-0.37,2.15-0.56,4.3-0.56,6.27c0,2.06,0.19,4.12,0.56,6.27C151.97,249.66,154.68,249.76,156.65,249.76 M158.24,306.38
		c2.15,0,4.31-0.19,6.55-0.56v-48.38h-19.28c-0.38,1.59-0.56,3.27-0.56,4.96c0,1.59,0.19,3.56,0.56,5.15h6.27v38.28
		C154.03,306.19,156.18,306.38,158.24,306.38 M115.75,306.94c15.82,0,25.92-8.24,25.92-21.43c0-11.98-5.62-15.82-15.63-19.65
		l-5.62-2.15c-4.21-1.59-7.77-3.09-7.77-7.95c0-5.8,4.31-7.3,9.17-7.3c2.9,0,5.15,0.19,7.21,0.65v6.18
		c1.59,0.37,3.56,0.56,5.15,0.56c1.68,0,3.37-0.19,4.96-0.56c0.09-2.15,0.19-4.59,0.19-7.11c0-2.53-0.09-5.05-0.19-7.49
		c-6.08-2.15-11.32-3.28-17.69-3.28c-13.66,0-22.93,6.74-22.93,19.56c0,10.11,5.05,14.41,13.76,17.69l5.71,2.15
		c4.77,1.78,8.98,3.65,8.98,9.36c0,5.99-4.77,8.89-12.63,8.89c-5.24,0-9.55-1.03-14.79-3.18c-1.4,4.02-2.43,7.96-2.81,11.61
		C102.93,306,108.26,306.94,115.75,306.94 M401.38,306.38c1.87,0,3.84-0.19,5.8-0.56l1.31-46.33l12.73,32.29
		c1.78,0.37,3.37,0.47,4.96,0.47c1.87,0,3.74-0.19,5.52-0.47l13.66-31.63l1.68,45.67c2.06,0.38,4.12,0.56,6.27,0.56
		c2.15,0,4.4-0.19,6.74-0.56l-3.18-67.29c-2.15-0.37-4.49-0.56-6.83-0.56c-2.34,0-4.49,0.19-6.46,0.56l-15.91,38.56l-15.35-38.28
		c-3.74-0.56-8.24-0.65-11.51-0.65h-4.4h0.65l-6.83,0.28c-0.38,1.59-0.56,3.28-0.56,4.96c0,1.59,0.19,3.56,0.56,5.15h7.21
		l-2.25,57.28C397.36,306.19,399.42,306.38,401.38,306.38"/>
</g>
</svg>
